<mxfile host="65bd71144e">
    <diagram name="Da_ModelloConcettuale_a_ModelloLogico" id="-yv5WGMzoX3IzLSdvMzi">
        <mxGraphModel dx="722" dy="692" grid="1" gridSize="10" guides="1" tooltips="1" connect="1" arrows="1" fold="1" page="1" pageScale="1" pageWidth="827" pageHeight="1169" math="0" shadow="0">
            <root>
                <mxCell id="J8HFRLxIJylvyj6Rzszp-0"/>
                <mxCell id="J8HFRLxIJylvyj6Rzszp-1" parent="J8HFRLxIJylvyj6Rzszp-0"/>
                <mxCell id="J8HFRLxIJylvyj6Rzszp-2" value="Libro" style="shape=table;startSize=30;container=1;collapsible=1;childLayout=tableLayout;fixedRows=1;rowLines=0;fontStyle=1;align=center;resizeLast=1;" parent="J8HFRLxIJylvyj6Rzszp-1" vertex="1">
                    <mxGeometry x="265" y="170" width="180" height="180" as="geometry"/>
                </mxCell>
                <mxCell id="J8HFRLxIJylvyj6Rzszp-3" value="" style="shape=tableRow;horizontal=0;startSize=0;swimlaneHead=0;swimlaneBody=0;fillColor=none;collapsible=0;dropTarget=0;points=[[0,0.5],[1,0.5]];portConstraint=eastwest;top=0;left=0;right=0;bottom=1;" parent="J8HFRLxIJylvyj6Rzszp-2" vertex="1">
                    <mxGeometry y="30" width="180" height="30" as="geometry"/>
                </mxCell>
                <mxCell id="J8HFRLxIJylvyj6Rzszp-4" value="PK" style="shape=partialRectangle;connectable=0;fillColor=none;top=0;left=0;bottom=0;right=0;fontStyle=1;overflow=hidden;" parent="J8HFRLxIJylvyj6Rzszp-3" vertex="1">
                    <mxGeometry width="30" height="30" as="geometry">
                        <mxRectangle width="30" height="30" as="alternateBounds"/>
                    </mxGeometry>
                </mxCell>
                <mxCell id="J8HFRLxIJylvyj6Rzszp-5" value="ISBN" style="shape=partialRectangle;connectable=0;fillColor=none;top=0;left=0;bottom=0;right=0;align=left;spacingLeft=6;fontStyle=5;overflow=hidden;" parent="J8HFRLxIJylvyj6Rzszp-3" vertex="1">
                    <mxGeometry x="30" width="150" height="30" as="geometry">
                        <mxRectangle width="150" height="30" as="alternateBounds"/>
                    </mxGeometry>
                </mxCell>
                <mxCell id="J8HFRLxIJylvyj6Rzszp-6" value="" style="shape=tableRow;horizontal=0;startSize=0;swimlaneHead=0;swimlaneBody=0;fillColor=none;collapsible=0;dropTarget=0;points=[[0,0.5],[1,0.5]];portConstraint=eastwest;top=0;left=0;right=0;bottom=0;" parent="J8HFRLxIJylvyj6Rzszp-2" vertex="1">
                    <mxGeometry y="60" width="180" height="30" as="geometry"/>
                </mxCell>
                <mxCell id="J8HFRLxIJylvyj6Rzszp-7" value="" style="shape=partialRectangle;connectable=0;fillColor=none;top=0;left=0;bottom=0;right=0;editable=1;overflow=hidden;" parent="J8HFRLxIJylvyj6Rzszp-6" vertex="1">
                    <mxGeometry width="30" height="30" as="geometry">
                        <mxRectangle width="30" height="30" as="alternateBounds"/>
                    </mxGeometry>
                </mxCell>
                <mxCell id="J8HFRLxIJylvyj6Rzszp-8" value="Titolo" style="shape=partialRectangle;connectable=0;fillColor=none;top=0;left=0;bottom=0;right=0;align=left;spacingLeft=6;overflow=hidden;" parent="J8HFRLxIJylvyj6Rzszp-6" vertex="1">
                    <mxGeometry x="30" width="150" height="30" as="geometry">
                        <mxRectangle width="150" height="30" as="alternateBounds"/>
                    </mxGeometry>
                </mxCell>
                <mxCell id="J8HFRLxIJylvyj6Rzszp-9" value="" style="shape=tableRow;horizontal=0;startSize=0;swimlaneHead=0;swimlaneBody=0;fillColor=none;collapsible=0;dropTarget=0;points=[[0,0.5],[1,0.5]];portConstraint=eastwest;top=0;left=0;right=0;bottom=0;" parent="J8HFRLxIJylvyj6Rzszp-2" vertex="1">
                    <mxGeometry y="90" width="180" height="30" as="geometry"/>
                </mxCell>
                <mxCell id="J8HFRLxIJylvyj6Rzszp-10" value="" style="shape=partialRectangle;connectable=0;fillColor=none;top=0;left=0;bottom=0;right=0;editable=1;overflow=hidden;" parent="J8HFRLxIJylvyj6Rzszp-9" vertex="1">
                    <mxGeometry width="30" height="30" as="geometry">
                        <mxRectangle width="30" height="30" as="alternateBounds"/>
                    </mxGeometry>
                </mxCell>
                <mxCell id="J8HFRLxIJylvyj6Rzszp-11" value="AnnoPubblicazione" style="shape=partialRectangle;connectable=0;fillColor=none;top=0;left=0;bottom=0;right=0;align=left;spacingLeft=6;overflow=hidden;" parent="J8HFRLxIJylvyj6Rzszp-9" vertex="1">
                    <mxGeometry x="30" width="150" height="30" as="geometry">
                        <mxRectangle width="150" height="30" as="alternateBounds"/>
                    </mxGeometry>
                </mxCell>
                <mxCell id="J8HFRLxIJylvyj6Rzszp-12" value="" style="shape=tableRow;horizontal=0;startSize=0;swimlaneHead=0;swimlaneBody=0;fillColor=none;collapsible=0;dropTarget=0;points=[[0,0.5],[1,0.5]];portConstraint=eastwest;top=0;left=0;right=0;bottom=0;" parent="J8HFRLxIJylvyj6Rzszp-2" vertex="1">
                    <mxGeometry y="120" width="180" height="30" as="geometry"/>
                </mxCell>
                <mxCell id="J8HFRLxIJylvyj6Rzszp-13" value="" style="shape=partialRectangle;connectable=0;fillColor=none;top=0;left=0;bottom=0;right=0;editable=1;overflow=hidden;" parent="J8HFRLxIJylvyj6Rzszp-12" vertex="1">
                    <mxGeometry width="30" height="30" as="geometry">
                        <mxRectangle width="30" height="30" as="alternateBounds"/>
                    </mxGeometry>
                </mxCell>
                <mxCell id="J8HFRLxIJylvyj6Rzszp-14" value="CasaEditrice" style="shape=partialRectangle;connectable=0;fillColor=none;top=0;left=0;bottom=0;right=0;align=left;spacingLeft=6;overflow=hidden;" parent="J8HFRLxIJylvyj6Rzszp-12" vertex="1">
                    <mxGeometry x="30" width="150" height="30" as="geometry">
                        <mxRectangle width="150" height="30" as="alternateBounds"/>
                    </mxGeometry>
                </mxCell>
                <mxCell id="-wBrcG07bAJu_J_vDxZs-6" value="" style="shape=tableRow;horizontal=0;startSize=0;swimlaneHead=0;swimlaneBody=0;fillColor=none;collapsible=0;dropTarget=0;points=[[0,0.5],[1,0.5]];portConstraint=eastwest;top=0;left=0;right=0;bottom=0;" parent="J8HFRLxIJylvyj6Rzszp-2" vertex="1">
                    <mxGeometry y="150" width="180" height="30" as="geometry"/>
                </mxCell>
                <mxCell id="-wBrcG07bAJu_J_vDxZs-7" value="FK" style="shape=partialRectangle;connectable=0;fillColor=none;top=0;left=0;bottom=0;right=0;fontStyle=0;overflow=hidden;" parent="-wBrcG07bAJu_J_vDxZs-6" vertex="1">
                    <mxGeometry width="30" height="30" as="geometry">
                        <mxRectangle width="30" height="30" as="alternateBounds"/>
                    </mxGeometry>
                </mxCell>
                <mxCell id="-wBrcG07bAJu_J_vDxZs-8" value="NomeCategoria" style="shape=partialRectangle;connectable=0;fillColor=none;top=0;left=0;bottom=0;right=0;align=left;spacingLeft=6;fontStyle=0;overflow=hidden;fontColor=#0000FF;" parent="-wBrcG07bAJu_J_vDxZs-6" vertex="1">
                    <mxGeometry x="30" width="150" height="30" as="geometry">
                        <mxRectangle width="150" height="30" as="alternateBounds"/>
                    </mxGeometry>
                </mxCell>
                <mxCell id="J8HFRLxIJylvyj6Rzszp-15" value="Categoria" style="shape=table;startSize=30;container=1;collapsible=1;childLayout=tableLayout;fixedRows=1;rowLines=0;fontStyle=1;align=center;resizeLast=1;" parent="J8HFRLxIJylvyj6Rzszp-1" vertex="1">
                    <mxGeometry x="5" y="160" width="180" height="90" as="geometry"/>
                </mxCell>
                <mxCell id="J8HFRLxIJylvyj6Rzszp-16" value="" style="shape=tableRow;horizontal=0;startSize=0;swimlaneHead=0;swimlaneBody=0;fillColor=none;collapsible=0;dropTarget=0;points=[[0,0.5],[1,0.5]];portConstraint=eastwest;top=0;left=0;right=0;bottom=1;" parent="J8HFRLxIJylvyj6Rzszp-15" vertex="1">
                    <mxGeometry y="30" width="180" height="30" as="geometry"/>
                </mxCell>
                <mxCell id="J8HFRLxIJylvyj6Rzszp-17" value="PK" style="shape=partialRectangle;connectable=0;fillColor=none;top=0;left=0;bottom=0;right=0;fontStyle=1;overflow=hidden;" parent="J8HFRLxIJylvyj6Rzszp-16" vertex="1">
                    <mxGeometry width="30" height="30" as="geometry">
                        <mxRectangle width="30" height="30" as="alternateBounds"/>
                    </mxGeometry>
                </mxCell>
                <mxCell id="J8HFRLxIJylvyj6Rzszp-18" value="NomeCategoria" style="shape=partialRectangle;connectable=0;fillColor=none;top=0;left=0;bottom=0;right=0;align=left;spacingLeft=6;fontStyle=5;overflow=hidden;" parent="J8HFRLxIJylvyj6Rzszp-16" vertex="1">
                    <mxGeometry x="30" width="150" height="30" as="geometry">
                        <mxRectangle width="150" height="30" as="alternateBounds"/>
                    </mxGeometry>
                </mxCell>
                <mxCell id="J8HFRLxIJylvyj6Rzszp-19" value="" style="shape=tableRow;horizontal=0;startSize=0;swimlaneHead=0;swimlaneBody=0;fillColor=none;collapsible=0;dropTarget=0;points=[[0,0.5],[1,0.5]];portConstraint=eastwest;top=0;left=0;right=0;bottom=0;" parent="J8HFRLxIJylvyj6Rzszp-15" vertex="1">
                    <mxGeometry y="60" width="180" height="30" as="geometry"/>
                </mxCell>
                <mxCell id="J8HFRLxIJylvyj6Rzszp-20" value="" style="shape=partialRectangle;connectable=0;fillColor=none;top=0;left=0;bottom=0;right=0;editable=1;overflow=hidden;" parent="J8HFRLxIJylvyj6Rzszp-19" vertex="1">
                    <mxGeometry width="30" height="30" as="geometry">
                        <mxRectangle width="30" height="30" as="alternateBounds"/>
                    </mxGeometry>
                </mxCell>
                <mxCell id="J8HFRLxIJylvyj6Rzszp-21" value="Descrizione" style="shape=partialRectangle;connectable=0;fillColor=none;top=0;left=0;bottom=0;right=0;align=left;spacingLeft=6;overflow=hidden;" parent="J8HFRLxIJylvyj6Rzszp-19" vertex="1">
                    <mxGeometry x="30" width="150" height="30" as="geometry">
                        <mxRectangle width="150" height="30" as="alternateBounds"/>
                    </mxGeometry>
                </mxCell>
                <mxCell id="J8HFRLxIJylvyj6Rzszp-22" value="Autore" style="shape=table;startSize=30;container=1;collapsible=1;childLayout=tableLayout;fixedRows=1;rowLines=0;fontStyle=1;align=center;resizeLast=1;" parent="J8HFRLxIJylvyj6Rzszp-1" vertex="1">
                    <mxGeometry x="550" y="210" width="180" height="180" as="geometry"/>
                </mxCell>
                <mxCell id="J8HFRLxIJylvyj6Rzszp-23" value="" style="shape=tableRow;horizontal=0;startSize=0;swimlaneHead=0;swimlaneBody=0;fillColor=none;collapsible=0;dropTarget=0;points=[[0,0.5],[1,0.5]];portConstraint=eastwest;top=0;left=0;right=0;bottom=1;" parent="J8HFRLxIJylvyj6Rzszp-22" vertex="1">
                    <mxGeometry y="30" width="180" height="30" as="geometry"/>
                </mxCell>
                <mxCell id="J8HFRLxIJylvyj6Rzszp-24" value="PK" style="shape=partialRectangle;connectable=0;fillColor=none;top=0;left=0;bottom=0;right=0;fontStyle=1;overflow=hidden;" parent="J8HFRLxIJylvyj6Rzszp-23" vertex="1">
                    <mxGeometry width="30" height="30" as="geometry">
                        <mxRectangle width="30" height="30" as="alternateBounds"/>
                    </mxGeometry>
                </mxCell>
                <mxCell id="J8HFRLxIJylvyj6Rzszp-25" value="IDAutore" style="shape=partialRectangle;connectable=0;fillColor=none;top=0;left=0;bottom=0;right=0;align=left;spacingLeft=6;fontStyle=5;overflow=hidden;" parent="J8HFRLxIJylvyj6Rzszp-23" vertex="1">
                    <mxGeometry x="30" width="150" height="30" as="geometry">
                        <mxRectangle width="150" height="30" as="alternateBounds"/>
                    </mxGeometry>
                </mxCell>
                <mxCell id="J8HFRLxIJylvyj6Rzszp-26" value="" style="shape=tableRow;horizontal=0;startSize=0;swimlaneHead=0;swimlaneBody=0;fillColor=none;collapsible=0;dropTarget=0;points=[[0,0.5],[1,0.5]];portConstraint=eastwest;top=0;left=0;right=0;bottom=0;" parent="J8HFRLxIJylvyj6Rzszp-22" vertex="1">
                    <mxGeometry y="60" width="180" height="30" as="geometry"/>
                </mxCell>
                <mxCell id="J8HFRLxIJylvyj6Rzszp-27" value="" style="shape=partialRectangle;connectable=0;fillColor=none;top=0;left=0;bottom=0;right=0;editable=1;overflow=hidden;" parent="J8HFRLxIJylvyj6Rzszp-26" vertex="1">
                    <mxGeometry width="30" height="30" as="geometry">
                        <mxRectangle width="30" height="30" as="alternateBounds"/>
                    </mxGeometry>
                </mxCell>
                <mxCell id="J8HFRLxIJylvyj6Rzszp-28" value="Nome" style="shape=partialRectangle;connectable=0;fillColor=none;top=0;left=0;bottom=0;right=0;align=left;spacingLeft=6;overflow=hidden;" parent="J8HFRLxIJylvyj6Rzszp-26" vertex="1">
                    <mxGeometry x="30" width="150" height="30" as="geometry">
                        <mxRectangle width="150" height="30" as="alternateBounds"/>
                    </mxGeometry>
                </mxCell>
                <mxCell id="J8HFRLxIJylvyj6Rzszp-29" value="" style="shape=tableRow;horizontal=0;startSize=0;swimlaneHead=0;swimlaneBody=0;fillColor=none;collapsible=0;dropTarget=0;points=[[0,0.5],[1,0.5]];portConstraint=eastwest;top=0;left=0;right=0;bottom=0;" parent="J8HFRLxIJylvyj6Rzszp-22" vertex="1">
                    <mxGeometry y="90" width="180" height="30" as="geometry"/>
                </mxCell>
                <mxCell id="J8HFRLxIJylvyj6Rzszp-30" value="" style="shape=partialRectangle;connectable=0;fillColor=none;top=0;left=0;bottom=0;right=0;editable=1;overflow=hidden;" parent="J8HFRLxIJylvyj6Rzszp-29" vertex="1">
                    <mxGeometry width="30" height="30" as="geometry">
                        <mxRectangle width="30" height="30" as="alternateBounds"/>
                    </mxGeometry>
                </mxCell>
                <mxCell id="J8HFRLxIJylvyj6Rzszp-31" value="Cognome" style="shape=partialRectangle;connectable=0;fillColor=none;top=0;left=0;bottom=0;right=0;align=left;spacingLeft=6;overflow=hidden;" parent="J8HFRLxIJylvyj6Rzszp-29" vertex="1">
                    <mxGeometry x="30" width="150" height="30" as="geometry">
                        <mxRectangle width="150" height="30" as="alternateBounds"/>
                    </mxGeometry>
                </mxCell>
                <mxCell id="J8HFRLxIJylvyj6Rzszp-32" value="" style="shape=tableRow;horizontal=0;startSize=0;swimlaneHead=0;swimlaneBody=0;fillColor=none;collapsible=0;dropTarget=0;points=[[0,0.5],[1,0.5]];portConstraint=eastwest;top=0;left=0;right=0;bottom=0;" parent="J8HFRLxIJylvyj6Rzszp-22" vertex="1">
                    <mxGeometry y="120" width="180" height="30" as="geometry"/>
                </mxCell>
                <mxCell id="J8HFRLxIJylvyj6Rzszp-33" value="" style="shape=partialRectangle;connectable=0;fillColor=none;top=0;left=0;bottom=0;right=0;editable=1;overflow=hidden;" parent="J8HFRLxIJylvyj6Rzszp-32" vertex="1">
                    <mxGeometry width="30" height="30" as="geometry">
                        <mxRectangle width="30" height="30" as="alternateBounds"/>
                    </mxGeometry>
                </mxCell>
                <mxCell id="J8HFRLxIJylvyj6Rzszp-34" value="DataNascita" style="shape=partialRectangle;connectable=0;fillColor=none;top=0;left=0;bottom=0;right=0;align=left;spacingLeft=6;overflow=hidden;" parent="J8HFRLxIJylvyj6Rzszp-32" vertex="1">
                    <mxGeometry x="30" width="150" height="30" as="geometry">
                        <mxRectangle width="150" height="30" as="alternateBounds"/>
                    </mxGeometry>
                </mxCell>
                <mxCell id="J8HFRLxIJylvyj6Rzszp-35" style="shape=tableRow;horizontal=0;startSize=0;swimlaneHead=0;swimlaneBody=0;fillColor=none;collapsible=0;dropTarget=0;points=[[0,0.5],[1,0.5]];portConstraint=eastwest;top=0;left=0;right=0;bottom=0;" parent="J8HFRLxIJylvyj6Rzszp-22" vertex="1">
                    <mxGeometry y="150" width="180" height="30" as="geometry"/>
                </mxCell>
                <mxCell id="J8HFRLxIJylvyj6Rzszp-36" style="shape=partialRectangle;connectable=0;fillColor=none;top=0;left=0;bottom=0;right=0;editable=1;overflow=hidden;" parent="J8HFRLxIJylvyj6Rzszp-35" vertex="1">
                    <mxGeometry width="30" height="30" as="geometry">
                        <mxRectangle width="30" height="30" as="alternateBounds"/>
                    </mxGeometry>
                </mxCell>
                <mxCell id="J8HFRLxIJylvyj6Rzszp-37" value="LibriScritti" style="shape=partialRectangle;connectable=0;fillColor=none;top=0;left=0;bottom=0;right=0;align=left;spacingLeft=6;overflow=hidden;" parent="J8HFRLxIJylvyj6Rzszp-35" vertex="1">
                    <mxGeometry x="30" width="150" height="30" as="geometry">
                        <mxRectangle width="150" height="30" as="alternateBounds"/>
                    </mxGeometry>
                </mxCell>
                <mxCell id="J8HFRLxIJylvyj6Rzszp-38" value="UtenteBiblioteca/Membro" style="shape=table;startSize=30;container=1;collapsible=1;childLayout=tableLayout;fixedRows=1;rowLines=0;fontStyle=1;align=center;resizeLast=1;" parent="J8HFRLxIJylvyj6Rzszp-1" vertex="1">
                    <mxGeometry x="60" y="450" width="180" height="210" as="geometry"/>
                </mxCell>
                <mxCell id="J8HFRLxIJylvyj6Rzszp-39" value="" style="shape=tableRow;horizontal=0;startSize=0;swimlaneHead=0;swimlaneBody=0;fillColor=none;collapsible=0;dropTarget=0;points=[[0,0.5],[1,0.5]];portConstraint=eastwest;top=0;left=0;right=0;bottom=1;" parent="J8HFRLxIJylvyj6Rzszp-38" vertex="1">
                    <mxGeometry y="30" width="180" height="30" as="geometry"/>
                </mxCell>
                <mxCell id="J8HFRLxIJylvyj6Rzszp-40" value="PK" style="shape=partialRectangle;connectable=0;fillColor=none;top=0;left=0;bottom=0;right=0;fontStyle=1;overflow=hidden;" parent="J8HFRLxIJylvyj6Rzszp-39" vertex="1">
                    <mxGeometry width="30" height="30" as="geometry">
                        <mxRectangle width="30" height="30" as="alternateBounds"/>
                    </mxGeometry>
                </mxCell>
                <mxCell id="J8HFRLxIJylvyj6Rzszp-41" value="IDTessera" style="shape=partialRectangle;connectable=0;fillColor=none;top=0;left=0;bottom=0;right=0;align=left;spacingLeft=6;fontStyle=5;overflow=hidden;" parent="J8HFRLxIJylvyj6Rzszp-39" vertex="1">
                    <mxGeometry x="30" width="150" height="30" as="geometry">
                        <mxRectangle width="150" height="30" as="alternateBounds"/>
                    </mxGeometry>
                </mxCell>
                <mxCell id="J8HFRLxIJylvyj6Rzszp-42" value="" style="shape=tableRow;horizontal=0;startSize=0;swimlaneHead=0;swimlaneBody=0;fillColor=none;collapsible=0;dropTarget=0;points=[[0,0.5],[1,0.5]];portConstraint=eastwest;top=0;left=0;right=0;bottom=0;" parent="J8HFRLxIJylvyj6Rzszp-38" vertex="1">
                    <mxGeometry y="60" width="180" height="30" as="geometry"/>
                </mxCell>
                <mxCell id="J8HFRLxIJylvyj6Rzszp-43" value="" style="shape=partialRectangle;connectable=0;fillColor=none;top=0;left=0;bottom=0;right=0;editable=1;overflow=hidden;" parent="J8HFRLxIJylvyj6Rzszp-42" vertex="1">
                    <mxGeometry width="30" height="30" as="geometry">
                        <mxRectangle width="30" height="30" as="alternateBounds"/>
                    </mxGeometry>
                </mxCell>
                <mxCell id="J8HFRLxIJylvyj6Rzszp-44" value="Nome" style="shape=partialRectangle;connectable=0;fillColor=none;top=0;left=0;bottom=0;right=0;align=left;spacingLeft=6;overflow=hidden;" parent="J8HFRLxIJylvyj6Rzszp-42" vertex="1">
                    <mxGeometry x="30" width="150" height="30" as="geometry">
                        <mxRectangle width="150" height="30" as="alternateBounds"/>
                    </mxGeometry>
                </mxCell>
                <mxCell id="J8HFRLxIJylvyj6Rzszp-45" value="" style="shape=tableRow;horizontal=0;startSize=0;swimlaneHead=0;swimlaneBody=0;fillColor=none;collapsible=0;dropTarget=0;points=[[0,0.5],[1,0.5]];portConstraint=eastwest;top=0;left=0;right=0;bottom=0;" parent="J8HFRLxIJylvyj6Rzszp-38" vertex="1">
                    <mxGeometry y="90" width="180" height="30" as="geometry"/>
                </mxCell>
                <mxCell id="J8HFRLxIJylvyj6Rzszp-46" value="" style="shape=partialRectangle;connectable=0;fillColor=none;top=0;left=0;bottom=0;right=0;editable=1;overflow=hidden;" parent="J8HFRLxIJylvyj6Rzszp-45" vertex="1">
                    <mxGeometry width="30" height="30" as="geometry">
                        <mxRectangle width="30" height="30" as="alternateBounds"/>
                    </mxGeometry>
                </mxCell>
                <mxCell id="J8HFRLxIJylvyj6Rzszp-47" value="Cognome" style="shape=partialRectangle;connectable=0;fillColor=none;top=0;left=0;bottom=0;right=0;align=left;spacingLeft=6;overflow=hidden;" parent="J8HFRLxIJylvyj6Rzszp-45" vertex="1">
                    <mxGeometry x="30" width="150" height="30" as="geometry">
                        <mxRectangle width="150" height="30" as="alternateBounds"/>
                    </mxGeometry>
                </mxCell>
                <mxCell id="J8HFRLxIJylvyj6Rzszp-48" value="" style="shape=tableRow;horizontal=0;startSize=0;swimlaneHead=0;swimlaneBody=0;fillColor=none;collapsible=0;dropTarget=0;points=[[0,0.5],[1,0.5]];portConstraint=eastwest;top=0;left=0;right=0;bottom=0;" parent="J8HFRLxIJylvyj6Rzszp-38" vertex="1">
                    <mxGeometry y="120" width="180" height="30" as="geometry"/>
                </mxCell>
                <mxCell id="J8HFRLxIJylvyj6Rzszp-49" value="" style="shape=partialRectangle;connectable=0;fillColor=none;top=0;left=0;bottom=0;right=0;editable=1;overflow=hidden;" parent="J8HFRLxIJylvyj6Rzszp-48" vertex="1">
                    <mxGeometry width="30" height="30" as="geometry">
                        <mxRectangle width="30" height="30" as="alternateBounds"/>
                    </mxGeometry>
                </mxCell>
                <mxCell id="J8HFRLxIJylvyj6Rzszp-50" value="indirizzo" style="shape=partialRectangle;connectable=0;fillColor=none;top=0;left=0;bottom=0;right=0;align=left;spacingLeft=6;overflow=hidden;" parent="J8HFRLxIJylvyj6Rzszp-48" vertex="1">
                    <mxGeometry x="30" width="150" height="30" as="geometry">
                        <mxRectangle width="150" height="30" as="alternateBounds"/>
                    </mxGeometry>
                </mxCell>
                <mxCell id="J8HFRLxIJylvyj6Rzszp-51" style="shape=tableRow;horizontal=0;startSize=0;swimlaneHead=0;swimlaneBody=0;fillColor=none;collapsible=0;dropTarget=0;points=[[0,0.5],[1,0.5]];portConstraint=eastwest;top=0;left=0;right=0;bottom=0;" parent="J8HFRLxIJylvyj6Rzszp-38" vertex="1">
                    <mxGeometry y="150" width="180" height="30" as="geometry"/>
                </mxCell>
                <mxCell id="J8HFRLxIJylvyj6Rzszp-52" style="shape=partialRectangle;connectable=0;fillColor=none;top=0;left=0;bottom=0;right=0;editable=1;overflow=hidden;" parent="J8HFRLxIJylvyj6Rzszp-51" vertex="1">
                    <mxGeometry width="30" height="30" as="geometry">
                        <mxRectangle width="30" height="30" as="alternateBounds"/>
                    </mxGeometry>
                </mxCell>
                <mxCell id="J8HFRLxIJylvyj6Rzszp-53" value="NumeroTelefono" style="shape=partialRectangle;connectable=0;fillColor=none;top=0;left=0;bottom=0;right=0;align=left;spacingLeft=6;overflow=hidden;" parent="J8HFRLxIJylvyj6Rzszp-51" vertex="1">
                    <mxGeometry x="30" width="150" height="30" as="geometry">
                        <mxRectangle width="150" height="30" as="alternateBounds"/>
                    </mxGeometry>
                </mxCell>
                <mxCell id="J8HFRLxIJylvyj6Rzszp-54" style="shape=tableRow;horizontal=0;startSize=0;swimlaneHead=0;swimlaneBody=0;fillColor=none;collapsible=0;dropTarget=0;points=[[0,0.5],[1,0.5]];portConstraint=eastwest;top=0;left=0;right=0;bottom=0;" parent="J8HFRLxIJylvyj6Rzszp-38" vertex="1">
                    <mxGeometry y="180" width="180" height="30" as="geometry"/>
                </mxCell>
                <mxCell id="J8HFRLxIJylvyj6Rzszp-55" style="shape=partialRectangle;connectable=0;fillColor=none;top=0;left=0;bottom=0;right=0;editable=1;overflow=hidden;" parent="J8HFRLxIJylvyj6Rzszp-54" vertex="1">
                    <mxGeometry width="30" height="30" as="geometry">
                        <mxRectangle width="30" height="30" as="alternateBounds"/>
                    </mxGeometry>
                </mxCell>
                <mxCell id="J8HFRLxIJylvyj6Rzszp-56" value="Email" style="shape=partialRectangle;connectable=0;fillColor=none;top=0;left=0;bottom=0;right=0;align=left;spacingLeft=6;overflow=hidden;" parent="J8HFRLxIJylvyj6Rzszp-54" vertex="1">
                    <mxGeometry x="30" width="150" height="30" as="geometry">
                        <mxRectangle width="150" height="30" as="alternateBounds"/>
                    </mxGeometry>
                </mxCell>
                <mxCell id="J8HFRLxIJylvyj6Rzszp-57" value="Prestito" style="shape=table;startSize=30;container=1;collapsible=1;childLayout=tableLayout;fixedRows=1;rowLines=0;fontStyle=1;align=center;resizeLast=1;" parent="J8HFRLxIJylvyj6Rzszp-1" vertex="1">
                    <mxGeometry x="530" y="470" width="180" height="180" as="geometry"/>
                </mxCell>
                <mxCell id="J8HFRLxIJylvyj6Rzszp-58" value="" style="shape=tableRow;horizontal=0;startSize=0;swimlaneHead=0;swimlaneBody=0;fillColor=none;collapsible=0;dropTarget=0;points=[[0,0.5],[1,0.5]];portConstraint=eastwest;top=0;left=0;right=0;bottom=1;" parent="J8HFRLxIJylvyj6Rzszp-57" vertex="1">
                    <mxGeometry y="30" width="180" height="30" as="geometry"/>
                </mxCell>
                <mxCell id="J8HFRLxIJylvyj6Rzszp-59" value="PK" style="shape=partialRectangle;connectable=0;fillColor=none;top=0;left=0;bottom=0;right=0;fontStyle=1;overflow=hidden;" parent="J8HFRLxIJylvyj6Rzszp-58" vertex="1">
                    <mxGeometry width="30" height="30" as="geometry">
                        <mxRectangle width="30" height="30" as="alternateBounds"/>
                    </mxGeometry>
                </mxCell>
                <mxCell id="J8HFRLxIJylvyj6Rzszp-60" value="IDPrestito" style="shape=partialRectangle;connectable=0;fillColor=none;top=0;left=0;bottom=0;right=0;align=left;spacingLeft=6;fontStyle=5;overflow=hidden;" parent="J8HFRLxIJylvyj6Rzszp-58" vertex="1">
                    <mxGeometry x="30" width="150" height="30" as="geometry">
                        <mxRectangle width="150" height="30" as="alternateBounds"/>
                    </mxGeometry>
                </mxCell>
                <mxCell id="J8HFRLxIJylvyj6Rzszp-61" value="" style="shape=tableRow;horizontal=0;startSize=0;swimlaneHead=0;swimlaneBody=0;fillColor=none;collapsible=0;dropTarget=0;points=[[0,0.5],[1,0.5]];portConstraint=eastwest;top=0;left=0;right=0;bottom=0;" parent="J8HFRLxIJylvyj6Rzszp-57" vertex="1">
                    <mxGeometry y="60" width="180" height="30" as="geometry"/>
                </mxCell>
                <mxCell id="J8HFRLxIJylvyj6Rzszp-62" value="" style="shape=partialRectangle;connectable=0;fillColor=none;top=0;left=0;bottom=0;right=0;editable=1;overflow=hidden;" parent="J8HFRLxIJylvyj6Rzszp-61" vertex="1">
                    <mxGeometry width="30" height="30" as="geometry">
                        <mxRectangle width="30" height="30" as="alternateBounds"/>
                    </mxGeometry>
                </mxCell>
                <mxCell id="J8HFRLxIJylvyj6Rzszp-63" value="DataInizioPrestito" style="shape=partialRectangle;connectable=0;fillColor=none;top=0;left=0;bottom=0;right=0;align=left;spacingLeft=6;overflow=hidden;" parent="J8HFRLxIJylvyj6Rzszp-61" vertex="1">
                    <mxGeometry x="30" width="150" height="30" as="geometry">
                        <mxRectangle width="150" height="30" as="alternateBounds"/>
                    </mxGeometry>
                </mxCell>
                <mxCell id="J8HFRLxIJylvyj6Rzszp-64" value="" style="shape=tableRow;horizontal=0;startSize=0;swimlaneHead=0;swimlaneBody=0;fillColor=none;collapsible=0;dropTarget=0;points=[[0,0.5],[1,0.5]];portConstraint=eastwest;top=0;left=0;right=0;bottom=0;" parent="J8HFRLxIJylvyj6Rzszp-57" vertex="1">
                    <mxGeometry y="90" width="180" height="30" as="geometry"/>
                </mxCell>
                <mxCell id="J8HFRLxIJylvyj6Rzszp-65" value="" style="shape=partialRectangle;connectable=0;fillColor=none;top=0;left=0;bottom=0;right=0;editable=1;overflow=hidden;" parent="J8HFRLxIJylvyj6Rzszp-64" vertex="1">
                    <mxGeometry width="30" height="30" as="geometry">
                        <mxRectangle width="30" height="30" as="alternateBounds"/>
                    </mxGeometry>
                </mxCell>
                <mxCell id="J8HFRLxIJylvyj6Rzszp-66" value="DataFinePrestito" style="shape=partialRectangle;connectable=0;fillColor=none;top=0;left=0;bottom=0;right=0;align=left;spacingLeft=6;overflow=hidden;" parent="J8HFRLxIJylvyj6Rzszp-64" vertex="1">
                    <mxGeometry x="30" width="150" height="30" as="geometry">
                        <mxRectangle width="150" height="30" as="alternateBounds"/>
                    </mxGeometry>
                </mxCell>
                <mxCell id="sya8sGQ9NlwlndMIAzwQ-17" value="" style="shape=tableRow;horizontal=0;startSize=0;swimlaneHead=0;swimlaneBody=0;fillColor=none;collapsible=0;dropTarget=0;points=[[0,0.5],[1,0.5]];portConstraint=eastwest;top=0;left=0;right=0;bottom=0;fontColor=#000000;" parent="J8HFRLxIJylvyj6Rzszp-57" vertex="1">
                    <mxGeometry y="120" width="180" height="30" as="geometry"/>
                </mxCell>
                <mxCell id="sya8sGQ9NlwlndMIAzwQ-18" value="FK" style="shape=partialRectangle;connectable=0;fillColor=none;top=0;left=0;bottom=0;right=0;fontStyle=0;overflow=hidden;fontColor=#000000;" parent="sya8sGQ9NlwlndMIAzwQ-17" vertex="1">
                    <mxGeometry width="30" height="30" as="geometry">
                        <mxRectangle width="30" height="30" as="alternateBounds"/>
                    </mxGeometry>
                </mxCell>
                <mxCell id="sya8sGQ9NlwlndMIAzwQ-19" value="ISBN" style="shape=partialRectangle;connectable=0;fillColor=none;top=0;left=0;bottom=0;right=0;align=left;spacingLeft=6;fontStyle=0;overflow=hidden;fontColor=#0000FF;" parent="sya8sGQ9NlwlndMIAzwQ-17" vertex="1">
                    <mxGeometry x="30" width="150" height="30" as="geometry">
                        <mxRectangle width="150" height="30" as="alternateBounds"/>
                    </mxGeometry>
                </mxCell>
                <mxCell id="sya8sGQ9NlwlndMIAzwQ-20" value="" style="shape=tableRow;horizontal=0;startSize=0;swimlaneHead=0;swimlaneBody=0;fillColor=none;collapsible=0;dropTarget=0;points=[[0,0.5],[1,0.5]];portConstraint=eastwest;top=0;left=0;right=0;bottom=0;fontColor=#0000FF;" parent="J8HFRLxIJylvyj6Rzszp-57" vertex="1">
                    <mxGeometry y="150" width="180" height="30" as="geometry"/>
                </mxCell>
                <mxCell id="sya8sGQ9NlwlndMIAzwQ-21" value="FK" style="shape=partialRectangle;connectable=0;fillColor=none;top=0;left=0;bottom=0;right=0;fontStyle=0;overflow=hidden;fontColor=#0000FF;" parent="sya8sGQ9NlwlndMIAzwQ-20" vertex="1">
                    <mxGeometry width="30" height="30" as="geometry">
                        <mxRectangle width="30" height="30" as="alternateBounds"/>
                    </mxGeometry>
                </mxCell>
                <mxCell id="sya8sGQ9NlwlndMIAzwQ-22" value="IDTessea" style="shape=partialRectangle;connectable=0;fillColor=none;top=0;left=0;bottom=0;right=0;align=left;spacingLeft=6;fontStyle=0;overflow=hidden;fontColor=#0000FF;" parent="sya8sGQ9NlwlndMIAzwQ-20" vertex="1">
                    <mxGeometry x="30" width="150" height="30" as="geometry">
                        <mxRectangle width="150" height="30" as="alternateBounds"/>
                    </mxGeometry>
                </mxCell>
                <mxCell id="J8HFRLxIJylvyj6Rzszp-67" value="Include" style="text;html=1;align=center;verticalAlign=middle;resizable=0;points=[];autosize=1;strokeColor=none;fillColor=none;" parent="J8HFRLxIJylvyj6Rzszp-1" vertex="1">
                    <mxGeometry x="205" y="170" width="60" height="30" as="geometry"/>
                </mxCell>
                <mxCell id="J8HFRLxIJylvyj6Rzszp-70" value="N.B. Relazione molti a molti&lt;br&gt;Relazione N:M (N a M)&lt;br&gt;Quindi la moltiplicità dei libri è diversa&lt;br&gt;dalla molteplicità degli autori" style="text;html=1;align=center;verticalAlign=middle;resizable=0;points=[];autosize=1;strokeColor=none;fillColor=none;fontStyle=1" parent="J8HFRLxIJylvyj6Rzszp-1" vertex="1">
                    <mxGeometry x="444" width="240" height="70" as="geometry"/>
                </mxCell>
                <mxCell id="J8HFRLxIJylvyj6Rzszp-72" value="Effettua" style="text;html=1;align=center;verticalAlign=middle;resizable=0;points=[];autosize=1;strokeColor=none;fillColor=none;" parent="J8HFRLxIJylvyj6Rzszp-1" vertex="1">
                    <mxGeometry x="340" y="460" width="60" height="30" as="geometry"/>
                </mxCell>
                <mxCell id="J8HFRLxIJylvyj6Rzszp-74" value="Prestato" style="text;html=1;align=center;verticalAlign=middle;resizable=0;points=[];autosize=1;strokeColor=none;fillColor=none;" parent="J8HFRLxIJylvyj6Rzszp-1" vertex="1">
                    <mxGeometry x="320" y="380" width="70" height="30" as="geometry"/>
                </mxCell>
                <mxCell id="J8HFRLxIJylvyj6Rzszp-75" value="Esercizio 02 - Possibile soluzione da modello concettuale a logico" style="text;html=1;align=center;verticalAlign=middle;resizable=0;points=[];autosize=1;strokeColor=none;fillColor=none;fontStyle=1" parent="J8HFRLxIJylvyj6Rzszp-1" vertex="1">
                    <mxGeometry x="14" y="50" width="400" height="30" as="geometry"/>
                </mxCell>
                <mxCell id="J8HFRLxIJylvyj6Rzszp-77" value="Relazione uno a molti&lt;br&gt;Relazione 1:N" style="text;html=1;align=center;verticalAlign=middle;resizable=0;points=[];autosize=1;strokeColor=none;fillColor=none;fontStyle=1" parent="J8HFRLxIJylvyj6Rzszp-1" vertex="1">
                    <mxGeometry x="160" y="130" width="150" height="40" as="geometry"/>
                </mxCell>
                <mxCell id="J8HFRLxIJylvyj6Rzszp-78" value="Relazione uno a molti&lt;br&gt;Relazione 1:N" style="text;html=1;align=center;verticalAlign=middle;resizable=0;points=[];autosize=1;strokeColor=none;fillColor=none;fontStyle=1" parent="J8HFRLxIJylvyj6Rzszp-1" vertex="1">
                    <mxGeometry x="310" y="490" width="150" height="40" as="geometry"/>
                </mxCell>
                <mxCell id="J8HFRLxIJylvyj6Rzszp-79" value="Relazione uno a molti&lt;br&gt;Relazione 1:N" style="text;html=1;align=center;verticalAlign=middle;resizable=0;points=[];autosize=1;strokeColor=none;fillColor=none;fontStyle=1" parent="J8HFRLxIJylvyj6Rzszp-1" vertex="1">
                    <mxGeometry x="295" y="400" width="150" height="40" as="geometry"/>
                </mxCell>
                <mxCell id="sya8sGQ9NlwlndMIAzwQ-0" value="Scrivere" style="shape=table;startSize=30;container=1;collapsible=1;childLayout=tableLayout;fixedRows=1;rowLines=0;fontStyle=1;align=center;resizeLast=1;fontColor=#000000;" parent="J8HFRLxIJylvyj6Rzszp-1" vertex="1">
                    <mxGeometry x="504" y="70" width="180" height="90" as="geometry"/>
                </mxCell>
                <mxCell id="sya8sGQ9NlwlndMIAzwQ-1" value="" style="shape=tableRow;horizontal=0;startSize=0;swimlaneHead=0;swimlaneBody=0;fillColor=none;collapsible=0;dropTarget=0;points=[[0,0.5],[1,0.5]];portConstraint=eastwest;top=0;left=0;right=0;bottom=1;fontColor=#0000FF;" parent="sya8sGQ9NlwlndMIAzwQ-0" vertex="1">
                    <mxGeometry y="30" width="180" height="30" as="geometry"/>
                </mxCell>
                <mxCell id="sya8sGQ9NlwlndMIAzwQ-2" value="FK" style="shape=partialRectangle;connectable=0;fillColor=none;top=0;left=0;bottom=0;right=0;fontStyle=1;overflow=hidden;fontColor=#000000;" parent="sya8sGQ9NlwlndMIAzwQ-1" vertex="1">
                    <mxGeometry width="30" height="30" as="geometry">
                        <mxRectangle width="30" height="30" as="alternateBounds"/>
                    </mxGeometry>
                </mxCell>
                <mxCell id="sya8sGQ9NlwlndMIAzwQ-3" value="ISBN" style="shape=partialRectangle;connectable=0;fillColor=none;top=0;left=0;bottom=0;right=0;align=left;spacingLeft=6;fontStyle=0;overflow=hidden;fontColor=#0000FF;" parent="sya8sGQ9NlwlndMIAzwQ-1" vertex="1">
                    <mxGeometry x="30" width="150" height="30" as="geometry">
                        <mxRectangle width="150" height="30" as="alternateBounds"/>
                    </mxGeometry>
                </mxCell>
                <mxCell id="sya8sGQ9NlwlndMIAzwQ-14" value="" style="shape=tableRow;horizontal=0;startSize=0;swimlaneHead=0;swimlaneBody=0;fillColor=none;collapsible=0;dropTarget=0;points=[[0,0.5],[1,0.5]];portConstraint=eastwest;top=0;left=0;right=0;bottom=1;fontColor=#000000;" parent="sya8sGQ9NlwlndMIAzwQ-0" vertex="1">
                    <mxGeometry y="60" width="180" height="30" as="geometry"/>
                </mxCell>
                <mxCell id="sya8sGQ9NlwlndMIAzwQ-15" value="FK" style="shape=partialRectangle;connectable=0;fillColor=none;top=0;left=0;bottom=0;right=0;fontStyle=1;overflow=hidden;fontColor=#000000;" parent="sya8sGQ9NlwlndMIAzwQ-14" vertex="1">
                    <mxGeometry width="30" height="30" as="geometry">
                        <mxRectangle width="30" height="30" as="alternateBounds"/>
                    </mxGeometry>
                </mxCell>
                <mxCell id="sya8sGQ9NlwlndMIAzwQ-16" value="IDAutore" style="shape=partialRectangle;connectable=0;fillColor=none;top=0;left=0;bottom=0;right=0;align=left;spacingLeft=6;fontStyle=0;overflow=hidden;fontColor=#0000FF;" parent="sya8sGQ9NlwlndMIAzwQ-14" vertex="1">
                    <mxGeometry x="30" width="150" height="30" as="geometry">
                        <mxRectangle width="150" height="30" as="alternateBounds"/>
                    </mxGeometry>
                </mxCell>
                <mxCell id="sya8sGQ9NlwlndMIAzwQ-23" value="MODELLO LOGICO&amp;nbsp;" style="text;html=1;align=center;verticalAlign=middle;resizable=0;points=[];autosize=1;strokeColor=none;fillColor=none;fontColor=#000000;" parent="J8HFRLxIJylvyj6Rzszp-1" vertex="1">
                    <mxGeometry x="65" y="665" width="140" height="30" as="geometry"/>
                </mxCell>
                <mxCell id="sya8sGQ9NlwlndMIAzwQ-24" value="Categoria (&lt;u&gt;NomeCategoria&lt;/u&gt;, Descrizione)" style="text;html=1;align=center;verticalAlign=middle;resizable=0;points=[];autosize=1;strokeColor=none;fillColor=none;fontColor=#000000;" parent="J8HFRLxIJylvyj6Rzszp-1" vertex="1">
                    <mxGeometry x="70" y="695" width="240" height="30" as="geometry"/>
                </mxCell>
                <mxCell id="sya8sGQ9NlwlndMIAzwQ-25" value="Libro (&lt;u&gt;ISBN&lt;/u&gt;, Titolo, AnnoPubblicazione, CasaEdistrice, &lt;font color=&quot;#0000ff&quot;&gt;NomeCategoria&lt;/font&gt;)" style="text;html=1;align=center;verticalAlign=middle;resizable=0;points=[];autosize=1;strokeColor=none;fillColor=none;fontColor=#000000;" parent="J8HFRLxIJylvyj6Rzszp-1" vertex="1">
                    <mxGeometry x="65" y="720" width="410" height="30" as="geometry"/>
                </mxCell>
                <mxCell id="sya8sGQ9NlwlndMIAzwQ-26" value="Scrivere (&lt;font color=&quot;#0000ff&quot;&gt;ISBN&lt;/font&gt;, &lt;font color=&quot;#0000ff&quot;&gt;IDAutore&lt;/font&gt;)" style="text;html=1;align=center;verticalAlign=middle;resizable=0;points=[];autosize=1;strokeColor=none;fillColor=none;fontColor=#000000;" parent="J8HFRLxIJylvyj6Rzszp-1" vertex="1">
                    <mxGeometry x="70" y="750" width="160" height="30" as="geometry"/>
                </mxCell>
                <mxCell id="sya8sGQ9NlwlndMIAzwQ-27" value="Autore (&lt;u style=&quot;&quot;&gt;IDAutore&lt;/u&gt;, Nome, Cognome, DataNascrita, LibriScritti)" style="text;html=1;align=center;verticalAlign=middle;resizable=0;points=[];autosize=1;strokeColor=none;fillColor=none;fontColor=#000000;" parent="J8HFRLxIJylvyj6Rzszp-1" vertex="1">
                    <mxGeometry x="70" y="780" width="350" height="30" as="geometry"/>
                </mxCell>
                <mxCell id="sya8sGQ9NlwlndMIAzwQ-29" value="Prestito (&lt;u&gt;IDPrestico&lt;/u&gt;, DataInzioPrestito, DataFinePrestito, &lt;font color=&quot;#0000ff&quot;&gt;ISBN&lt;/font&gt;, &lt;font color=&quot;#0000ff&quot;&gt;IDTessera&lt;/font&gt;)" style="text;html=1;align=center;verticalAlign=middle;resizable=0;points=[];autosize=1;strokeColor=none;fillColor=none;fontColor=#000000;" parent="J8HFRLxIJylvyj6Rzszp-1" vertex="1">
                    <mxGeometry x="65" y="810" width="420" height="30" as="geometry"/>
                </mxCell>
                <mxCell id="sya8sGQ9NlwlndMIAzwQ-30" value="Membro (&lt;u&gt;IDTessera&lt;/u&gt;, Nome, Cognome, Indirizzo, NumeroTelefono, Email)" style="text;html=1;align=center;verticalAlign=middle;resizable=0;points=[];autosize=1;strokeColor=none;fillColor=none;fontColor=#000000;" parent="J8HFRLxIJylvyj6Rzszp-1" vertex="1">
                    <mxGeometry x="70" y="840" width="410" height="30" as="geometry"/>
                </mxCell>
                <mxCell id="sya8sGQ9NlwlndMIAzwQ-31" value="" style="edgeStyle=entityRelationEdgeStyle;fontSize=12;html=1;endArrow=ERoneToMany;startArrow=ERmandOne;fontColor=#0000FF;exitX=1;exitY=0.5;exitDx=0;exitDy=0;entryX=0;entryY=0.5;entryDx=0;entryDy=0;" parent="J8HFRLxIJylvyj6Rzszp-1" source="J8HFRLxIJylvyj6Rzszp-16" target="-wBrcG07bAJu_J_vDxZs-6" edge="1">
                    <mxGeometry width="100" height="100" relative="1" as="geometry">
                        <mxPoint x="370" y="340" as="sourcePoint"/>
                        <mxPoint x="470" y="240" as="targetPoint"/>
                    </mxGeometry>
                </mxCell>
                <mxCell id="sya8sGQ9NlwlndMIAzwQ-32" value="" style="edgeStyle=entityRelationEdgeStyle;fontSize=12;html=1;endArrow=ERoneToMany;startArrow=ERmandOne;fontColor=#0000FF;exitX=1;exitY=0.5;exitDx=0;exitDy=0;entryX=0;entryY=0.5;entryDx=0;entryDy=0;" parent="J8HFRLxIJylvyj6Rzszp-1" source="J8HFRLxIJylvyj6Rzszp-3" target="sya8sGQ9NlwlndMIAzwQ-1" edge="1">
                    <mxGeometry width="100" height="100" relative="1" as="geometry">
                        <mxPoint x="310" y="350" as="sourcePoint"/>
                        <mxPoint x="480" y="250" as="targetPoint"/>
                    </mxGeometry>
                </mxCell>
                <mxCell id="sya8sGQ9NlwlndMIAzwQ-34" value="" style="edgeStyle=entityRelationEdgeStyle;fontSize=12;html=1;endArrow=ERoneToMany;startArrow=ERmandOne;fontColor=#0000FF;exitX=1;exitY=0.5;exitDx=0;exitDy=0;entryX=1;entryY=0.5;entryDx=0;entryDy=0;" parent="J8HFRLxIJylvyj6Rzszp-1" source="J8HFRLxIJylvyj6Rzszp-23" target="sya8sGQ9NlwlndMIAzwQ-14" edge="1">
                    <mxGeometry width="100" height="100" relative="1" as="geometry">
                        <mxPoint x="310" y="430" as="sourcePoint"/>
                        <mxPoint x="410" y="330" as="targetPoint"/>
                    </mxGeometry>
                </mxCell>
                <mxCell id="sya8sGQ9NlwlndMIAzwQ-35" value="" style="edgeStyle=entityRelationEdgeStyle;fontSize=12;html=1;endArrow=ERoneToMany;startArrow=ERmandOne;fontColor=#0000FF;exitX=0.995;exitY=0.867;exitDx=0;exitDy=0;entryX=0;entryY=0.5;entryDx=0;entryDy=0;exitPerimeter=0;" parent="J8HFRLxIJylvyj6Rzszp-1" source="J8HFRLxIJylvyj6Rzszp-3" target="sya8sGQ9NlwlndMIAzwQ-17" edge="1">
                    <mxGeometry width="100" height="100" relative="1" as="geometry">
                        <mxPoint x="310" y="520" as="sourcePoint"/>
                        <mxPoint x="650" y="580" as="targetPoint"/>
                    </mxGeometry>
                </mxCell>
                <mxCell id="sya8sGQ9NlwlndMIAzwQ-36" value="" style="edgeStyle=entityRelationEdgeStyle;fontSize=12;html=1;endArrow=ERoneToMany;startArrow=ERmandOne;fontColor=#0000FF;exitX=1;exitY=0.5;exitDx=0;exitDy=0;entryX=0;entryY=0.5;entryDx=0;entryDy=0;" parent="J8HFRLxIJylvyj6Rzszp-1" source="J8HFRLxIJylvyj6Rzszp-39" target="sya8sGQ9NlwlndMIAzwQ-20" edge="1">
                    <mxGeometry width="100" height="100" relative="1" as="geometry">
                        <mxPoint x="310" y="520" as="sourcePoint"/>
                        <mxPoint x="410" y="420" as="targetPoint"/>
                    </mxGeometry>
                </mxCell>
            </root>
        </mxGraphModel>
    </diagram>
</mxfile>